<svg width="88" height="75" viewBox="0 0 88 75" fill="none" xmlns="http://www.w3.org/2000/svg">
<path fill-rule="evenodd" clip-rule="evenodd" d="M43.854 0C36.934 0 31.3243 6.2472 31.3243 13.9534C31.3243 21.6597 36.934 27.9068 43.854 27.9068C50.7743 27.9068 56.3837 21.6597 56.3837 13.9534C56.3837 6.2472 50.7743 0 43.854 0ZM19.3556 27.1455C32.3983 27.1455 42.9714 38.9201 42.9714 53.4446V75H31.2249V53.4446C31.2249 51.8975 30.9863 50.4132 30.5479 49.0336L13.2938 68.2483L4.98768 58.9981L21.6269 40.4686C20.8917 40.3099 20.1323 40.2268 19.3556 40.2268H0V27.1455H19.3556ZM68.6447 27.1455C55.6021 27.1455 45.0286 38.9201 45.0286 53.4446V75H56.7752V53.4446C56.7752 52.2333 56.9216 51.0594 57.1957 49.9449L75.2448 70.0448L83.5512 60.7946L65.5021 40.695C66.5029 40.3898 67.557 40.2268 68.6447 40.2268H88V27.1455H68.6447Z" fill="#1678F2"/>
</svg>
